<svg width="1483" height="1179" viewBox="0 0 1483 1179" fill="none" xmlns="http://www.w3.org/2000/svg">
<path d="M0.503994 0L0.503942 1178.38M185.722 0L185.722 1178.38M370.939 0L370.939 1178.38M556.157 0L556.157 1178.38M741.375 0L741.375 1178.38M926.593 0L926.593 1178.38M1111.81 0L1111.81 1178.38M1297.03 0L1297.03 1178.38M1482.25 0L1482.25 1178.38M0 1145.43H1481.74M0 960.043L1481.74 960.043M0 774.654L1481.74 774.654M0 589.265L1481.74 589.265M0 403.876L1481.74 403.876M0 218.487L1481.74 218.487M0 33.0973L1481.74 33.0974" stroke="url(#paint0_radial_16_202)" stroke-opacity="0.3"/>
<defs>
<radialGradient id="paint0_radial_16_202" cx="0" cy="0" r="1" gradientUnits="userSpaceOnUse" gradientTransform="translate(741.123 589.19) rotate(90) scale(589.19 741.123)">
<stop stop-color="white"/>
<stop offset="1" stop-color="white" stop-opacity="0"/>
</radialGradient>
</defs>
</svg>
