<svg width="175" height="154" viewBox="0 0 175 154" fill="none" xmlns="http://www.w3.org/2000/svg">
<path fill-rule="evenodd" clip-rule="evenodd" d="M112.63 143.589C119.042 144.243 125.38 144.946 131.808 145.412C133.191 145.518 134.386 144.487 134.486 143.113C134.591 141.731 133.553 140.531 132.179 140.43C125.787 139.961 119.503 139.266 113.135 138.615C111.759 138.479 110.534 139.48 110.394 140.843C110.257 142.219 111.254 143.453 112.63 143.589Z" fill="white"/>
<path fill-rule="evenodd" clip-rule="evenodd" d="M90.833 94.9432C107.474 83.2004 123.511 70.6239 139.89 58.5339C141.002 57.709 141.234 56.1459 140.418 55.0396C139.593 53.9283 138.035 53.6871 136.915 54.5069C120.568 66.581 104.564 79.1415 87.9517 90.8547C86.8194 91.6559 86.5555 93.2125 87.348 94.3398C88.1492 95.4721 89.7058 95.7357 90.833 94.9432Z" fill="white"/>
<path fill-rule="evenodd" clip-rule="evenodd" d="M29.7794 54.1511C35.9152 38.0637 41.6102 21.7796 47.9255 5.76118C48.4237 4.47839 47.7939 3.02953 46.5161 2.52274C45.2296 2.01094 43.7758 2.64939 43.269 3.92718C36.9523 19.9679 31.2472 36.2694 25.1102 52.3792C24.6207 53.6669 25.264 55.1123 26.5518 55.6018C27.8483 56.0963 29.2849 55.4476 29.7794 54.1511Z" fill="white"/>
</svg>
