<svg width="212" height="164" viewBox="0 0 212 164" fill="none" xmlns="http://www.w3.org/2000/svg">
<path fill-rule="evenodd" clip-rule="evenodd" d="M121.932 43.4543C104.508 26.9468 83.368 12.5866 59.8274 7.98263C51.2623 6.30658 42.8272 6.64555 34.1885 6.9149C33.5828 6.93287 33.1039 7.44157 33.1212 8.05014C33.1412 8.65946 33.6499 9.13829 34.2592 9.11826C42.731 8.85526 51.0043 8.50302 59.4038 10.1467C82.6104 14.6852 103.417 28.9081 120.569 45.1985L120.34 45.4826C117.842 48.5601 117.442 53.9216 118.558 59.9598C120.157 68.6152 124.754 78.687 129.659 84.8839C131.863 87.6681 134.153 89.6758 136.256 90.5307C137.895 91.1982 139.452 91.2068 140.848 90.4932C143.822 88.9704 144.727 85.2557 143.976 80.4663C142.409 70.449 133.917 55.5357 128.611 50.0606C126.954 48.3515 125.258 46.653 123.522 44.9771C123.947 44.4239 124.365 43.8839 124.795 43.3772C126.025 41.937 127.38 40.7524 129.509 40.2623C132.829 39.5022 136.385 40.1696 139.844 41.5232C145.241 43.6394 150.396 47.4455 154.117 50.5249C174.84 67.6758 181.51 89.5798 182.735 110.103C183.969 130.83 179.676 150.172 178.529 161.953C178.469 162.559 178.914 163.096 179.52 163.156C180.126 163.216 180.666 162.772 180.723 162.165C181.878 150.308 186.179 130.836 184.934 109.971C183.68 88.9024 176.795 66.433 155.525 48.8258C151.649 45.6178 146.27 41.6735 140.65 39.4704C136.758 37.9469 132.751 37.2578 129.015 38.1137C125.663 38.8832 123.846 40.9985 121.932 43.4543ZM122.166 46.732L122.05 46.8722C119.866 49.5622 119.75 54.2786 120.727 59.5584C122.263 67.8755 126.673 77.5576 131.39 83.5149C133.006 85.5584 134.648 87.1553 136.225 88.0647C137.527 88.8131 138.758 89.0859 139.842 88.5289C140.868 88.0076 141.47 87.0722 141.775 85.877C142.136 84.4743 142.101 82.7432 141.799 80.8084C140.292 71.1829 132.127 56.8559 127.028 51.5955C125.443 49.963 123.823 48.339 122.166 46.732Z" fill="black"/>
<path fill-rule="evenodd" clip-rule="evenodd" d="M30.6028 9.48676C30.8177 9.05458 31.2829 8.56322 31.7894 8.04091C32.9946 6.79534 34.5701 5.54685 35.2887 4.92814C35.7502 4.52897 35.7985 3.83282 35.4022 3.37206C35.003 2.91054 34.3076 2.85938 33.8461 3.25855C32.9667 4.01748 30.8702 5.68526 29.5812 7.18779C28.8903 7.99425 28.4313 8.78773 28.3173 9.41521C28.1212 10.4834 28.7732 11.3583 30.4237 11.7585C32.3765 12.2306 36.2397 12.2231 38.9429 14.2004C39.4325 14.56 40.1257 14.4512 40.4824 13.9609C40.8427 13.4685 40.7361 12.7789 40.2437 12.4186C37.6656 10.5349 34.1691 10.1719 31.8522 9.79148C31.412 9.7186 30.9033 9.5763 30.6028 9.48676Z" fill="black"/>
</svg>
