<svg width="324" height="223" viewBox="0 0 324 223" fill="none" xmlns="http://www.w3.org/2000/svg">
<mask id="mask0_16_259" style="mask-type:alpha" maskUnits="userSpaceOnUse" x="0" y="0" width="324" height="223">
<path d="M0 120C0 63.4315 0 35.1472 17.5736 17.5736C35.1472 0 63.4315 0 120 0H204C260.569 0 288.853 0 306.426 17.5736C324 35.1472 324 63.4315 324 120V165C324 192.341 324 206.012 315.506 214.506C307.012 223 293.341 223 266 223H58C30.6585 223 16.9878 223 8.4939 214.506C0 206.012 0 192.341 0 165V120Z" fill="#C4C4C4"/>
</mask>
<g mask="url(#mask0_16_259)">
<path d="M-369.795 213.691C-306.608 138.433 -138.831 11.82 26.7722 107.431C192.375 203.042 336.674 82.7197 388.123 10.6072C443.461 -57.966 592.286 -173.087 744.881 -84.9858" stroke="#F92323" stroke-width="70" stroke-linecap="round" stroke-linejoin="round"/>
<path d="M-391.365 155.05C-328.099 79.6997 -160.117 -47.0685 5.68893 48.6596C171.495 144.388 315.971 23.9181 367.483 -48.2828C422.889 -116.94 571.895 -232.202 724.678 -143.993" stroke="#4E6AFF" stroke-width="70" stroke-linecap="round" stroke-linejoin="round"/>
<path d="M-392.881 105.677C-329.693 30.4189 -161.917 -96.1942 3.6863 -0.58321C169.289 95.0278 313.588 -25.2945 365.038 -97.407C420.375 -165.98 569.2 -281.101 721.795 -193" stroke="#F9D423" stroke-width="70" stroke-linecap="round" stroke-linejoin="round"/>
</g>
</svg>
