<svg width="118" height="118" viewBox="0 0 118 118" fill="none" xmlns="http://www.w3.org/2000/svg">
<path opacity="0.4" d="M85.6667 15H32.3333C24.9556 15 19 20.9111 19 28.2V76.6889C19 83.9778 24.9556 89.8889 32.3333 89.8889H35.7111C39.2667 89.8889 42.6444 91.2667 45.1333 93.7555L52.7333 101.267C56.2 104.689 61.8444 104.689 65.3111 101.267L72.9111 93.7555C75.4 91.2667 78.8222 89.8889 82.3333 89.8889H85.6667C93.0444 89.8889 99 83.9778 99 76.6889V28.2C99 20.9111 93.0444 15 85.6667 15Z" fill="url(#paint0_linear_16_238)"/>
<path d="M82.3541 17.5033V9.83331C82.3541 7.81748 80.6824 6.14581 78.6666 6.14581C76.6508 6.14581 74.9791 7.81748 74.9791 9.83331V17.2083H43.0208V9.83331C43.0208 7.81748 41.3491 6.14581 39.3333 6.14581C37.3174 6.14581 35.6458 7.81748 35.6458 9.83331V17.5033C22.3708 18.7325 15.9299 26.6483 14.9466 38.3991C14.8483 39.825 16.0283 41.005 17.4049 41.005H100.595C102.021 41.005 103.201 39.7758 103.053 38.3991C102.07 26.6483 95.6291 18.7325 82.3541 17.5033Z" fill="url(#paint1_linear_16_238)"/>
<path d="M93.4167 73.75C82.5508 73.75 73.75 82.5508 73.75 93.4167C73.75 97.1042 74.7825 100.595 76.6017 103.545C79.9942 109.248 86.2383 113.083 93.4167 113.083C100.595 113.083 106.839 109.248 110.232 103.545C112.051 100.595 113.083 97.1042 113.083 93.4167C113.083 82.5508 104.282 73.75 93.4167 73.75ZM103.594 91.3025L93.1217 100.988C92.4333 101.628 91.4992 101.972 90.6142 101.972C89.68 101.972 88.7458 101.628 88.0083 100.89L83.1408 96.0225C81.715 94.5967 81.715 92.2367 83.1408 90.8108C84.5667 89.385 86.9267 89.385 88.3525 90.8108L90.7125 93.1708L98.5792 85.8942C100.054 84.5175 102.414 84.6158 103.791 86.0908C105.168 87.5658 105.069 89.8767 103.594 91.3025Z" fill="url(#paint2_linear_16_238)"/>
<path d="M98.3333 48.3798H19.6667C16.9625 48.3798 14.75 50.5923 14.75 53.2965V83.5832C14.75 98.3332 22.125 108.166 39.3333 108.166H63.5725C66.965 108.166 69.325 104.872 68.2433 101.676C67.26 98.8248 66.4242 95.6782 66.4242 93.4165C66.4242 78.519 78.5683 66.3748 93.4658 66.3748C94.8917 66.3748 96.3175 66.4732 97.6942 66.719C100.644 67.1615 103.299 64.8507 103.299 61.9007V53.3457C103.25 50.5923 101.038 48.3798 98.3333 48.3798ZM45.2825 89.5323C44.3483 90.4173 43.07 90.9582 41.7917 90.9582C40.5133 90.9582 39.235 90.4173 38.3008 89.5323C37.4158 88.5981 36.875 87.3198 36.875 86.0415C36.875 84.7632 37.4158 83.4848 38.3008 82.5507C38.7925 82.1082 39.2842 81.764 39.9233 81.5182C41.7425 80.7315 43.9058 81.174 45.2825 82.5507C46.1675 83.4848 46.7083 84.7632 46.7083 86.0415C46.7083 87.3198 46.1675 88.5981 45.2825 89.5323ZM45.2825 72.324C45.0367 72.5207 44.7908 72.7173 44.545 72.914C44.25 73.1107 43.955 73.2582 43.66 73.3565C43.365 73.504 43.07 73.6023 42.775 73.6515C42.4308 73.7007 42.0867 73.7498 41.7917 73.7498C40.5133 73.7498 39.235 73.209 38.3008 72.324C37.4158 71.3898 36.875 70.1115 36.875 68.8332C36.875 67.5548 37.4158 66.2765 38.3008 65.3423C39.4317 64.2115 41.1525 63.6707 42.775 64.0148C43.07 64.064 43.365 64.1623 43.66 64.3098C43.955 64.4082 44.25 64.5557 44.545 64.7523C44.7908 64.949 45.0367 65.1457 45.2825 65.3423C46.1675 66.2765 46.7083 67.5548 46.7083 68.8332C46.7083 70.1115 46.1675 71.3898 45.2825 72.324ZM62.4908 72.324C61.5567 73.209 60.2783 73.7498 59 73.7498C57.7217 73.7498 56.4433 73.209 55.5092 72.324C54.6242 71.3898 54.0833 70.1115 54.0833 68.8332C54.0833 67.5548 54.6242 66.2765 55.5092 65.3423C57.3775 63.5232 60.6717 63.5232 62.4908 65.3423C63.3758 66.2765 63.9167 67.5548 63.9167 68.8332C63.9167 70.1115 63.3758 71.3898 62.4908 72.324Z" fill="url(#paint3_linear_16_238)"/>
<defs>
<linearGradient id="paint0_linear_16_238" x1="19" y1="59.4167" x2="99" y2="59.4167" gradientUnits="userSpaceOnUse">
<stop stop-color="#B224EF"/>
<stop offset="1" stop-color="#7579FF"/>
</linearGradient>
<linearGradient id="paint1_linear_16_238" x1="14.9409" y1="23.5754" x2="103.066" y2="23.5754" gradientUnits="userSpaceOnUse">
<stop stop-color="#B224EF"/>
<stop offset="1" stop-color="#7579FF"/>
</linearGradient>
<linearGradient id="paint2_linear_16_238" x1="73.75" y1="93.4167" x2="113.083" y2="93.4167" gradientUnits="userSpaceOnUse">
<stop stop-color="#B224EF"/>
<stop offset="1" stop-color="#7579FF"/>
</linearGradient>
<linearGradient id="paint3_linear_16_238" x1="14.75" y1="78.2732" x2="103.299" y2="78.2732" gradientUnits="userSpaceOnUse">
<stop stop-color="#B224EF"/>
<stop offset="1" stop-color="#7579FF"/>
</linearGradient>
</defs>
</svg>
