<svg width="118" height="118" viewBox="0 0 118 118" fill="none" xmlns="http://www.w3.org/2000/svg">
<path opacity="0.4" d="M85.6667 15H32.3333C24.9556 15 19 20.9111 19 28.2V76.6889C19 83.9778 24.9556 89.8889 32.3333 89.8889H35.7111C39.2667 89.8889 42.6444 91.2667 45.1333 93.7555L52.7333 101.267C56.2 104.689 61.8444 104.689 65.3111 101.267L72.9111 93.7555C75.4 91.2667 78.8222 89.8889 82.3333 89.8889H85.6667C93.0444 89.8889 99 83.9778 99 76.6889V28.2C99 20.9111 93.0444 15 85.6667 15Z" fill="url(#paint0_linear_16_227)"/>
<path d="M104.479 90.8108L96.3667 92.7283C94.5475 93.1708 93.1217 94.5475 92.7283 96.3666L91.0075 103.594C90.0733 107.527 85.0583 108.757 82.4525 105.659L67.7516 88.7458C66.5716 87.3691 67.2108 85.2058 68.9808 84.7633C77.6833 82.6491 85.5008 77.7816 91.2533 70.8491C92.1875 69.7183 93.8591 69.5708 94.8916 70.6033L105.807 81.5183C109.543 85.255 108.216 89.9258 104.479 90.8108Z" fill="url(#paint1_linear_16_227)"/>
<path d="M13.2752 90.8108L21.3877 92.7283C23.2069 93.1708 24.6327 94.5475 25.026 96.3666L26.7469 103.594C27.681 107.527 32.696 108.757 35.3019 105.659L50.0027 88.7458C51.1827 87.3691 50.5435 85.2058 48.7735 84.7633C40.071 82.6491 32.2535 77.7816 26.501 70.8491C25.5669 69.7183 23.8952 69.5708 22.8627 70.6033L11.9477 81.5183C8.21102 85.255 9.53852 89.9258 13.2752 90.8108Z" fill="url(#paint2_linear_16_227)"/>
<path d="M59 9.83331C39.9725 9.83331 24.5833 25.2225 24.5833 44.25C24.5833 51.3792 26.6975 57.9183 30.3358 63.3758C35.6458 71.2425 44.0533 76.7983 53.8375 78.2242C55.5092 78.5191 57.23 78.6666 59 78.6666C60.77 78.6666 62.4908 78.5191 64.1625 78.2242C73.9467 76.7983 82.3542 71.2425 87.6642 63.3758C91.3025 57.9183 93.4167 51.3792 93.4167 44.25C93.4167 25.2225 78.0275 9.83331 59 9.83331ZM74.045 43.1683L69.9642 47.2491C69.2758 47.9375 68.8825 49.265 69.1283 50.2483L70.3083 55.3125C71.2425 59.295 69.1283 60.8683 65.5883 58.7542L60.6717 55.8533C59.7867 55.3125 58.3117 55.3125 57.4267 55.8533L52.51 58.7542C48.97 60.8191 46.8558 59.295 47.79 55.3125L48.97 50.2483C49.1667 49.3142 48.8225 47.9375 48.1342 47.2491L43.955 43.1683C41.5458 40.7591 42.3325 38.35 45.6758 37.8091L50.9367 36.9241C51.8217 36.7766 52.8542 35.99 53.2475 35.2033L56.1483 29.4016C57.7217 26.255 60.2783 26.255 61.8517 29.4016L64.7525 35.2033C65.1458 35.99 66.1783 36.7766 67.1125 36.9241L72.3733 37.8091C75.6675 38.35 76.4542 40.7591 74.045 43.1683Z" fill="url(#paint3_linear_16_227)"/>
<defs>
<linearGradient id="paint0_linear_16_227" x1="19" y1="59.4167" x2="99" y2="59.4167" gradientUnits="userSpaceOnUse">
<stop stop-color="#B224EF"/>
<stop offset="1" stop-color="#7579FF"/>
</linearGradient>
<linearGradient id="paint1_linear_16_227" x1="67.1516" y1="88.6568" x2="108.032" y2="88.6568" gradientUnits="userSpaceOnUse">
<stop stop-color="#B224EF"/>
<stop offset="1" stop-color="#7579FF"/>
</linearGradient>
<linearGradient id="paint2_linear_16_227" x1="9.72229" y1="88.6568" x2="50.6027" y2="88.6568" gradientUnits="userSpaceOnUse">
<stop stop-color="#B224EF"/>
<stop offset="1" stop-color="#7579FF"/>
</linearGradient>
<linearGradient id="paint3_linear_16_227" x1="24.5833" y1="44.25" x2="93.4167" y2="44.25" gradientUnits="userSpaceOnUse">
<stop stop-color="#B224EF"/>
<stop offset="1" stop-color="#7579FF"/>
</linearGradient>
</defs>
</svg>
